<?xml version="1.0" encoding="UTF-8"?>
<svg version="1.1" xmlns="http://www.w3.org/2000/svg" width="199" height="107">
<path d="M0 0 C65.67 0 131.34 0 199 0 C199 35.31 199 70.62 199 107 C133.33 107 67.66 107 0 107 C0 71.69 0 36.38 0 0 Z " fill="#FDF101" transform="translate(0,0)"/>
<path d="M0 0 C-0.61538462 5.53846154 -0.61538462 5.53846154 -2.5625 7.875 C-3.036875 8.24625 -3.51125 8.6175 -4 9 C-2.824375 9.4021875 -2.824375 9.4021875 -1.625 9.8125 C1 11 1 11 3 14 C2.27554688 14.20753906 1.55109375 14.41507813 0.8046875 14.62890625 C-5.84909003 16.74924336 -10.30497093 18.92153615 -14 25 C-15.14330513 28.42991538 -15.20381651 31.1986416 -15.25 34.8125 C-15.28867188 36.61654297 -15.28867188 36.61654297 -15.328125 38.45703125 C-14.89508433 43.13283945 -13.54386811 46.38946486 -10.28125 49.79296875 C-9.6934375 50.25316406 -9.105625 50.71335938 -8.5 51.1875 C-6.19329462 53.02375889 -4.05179495 54.87939486 -2 57 C-3.40552299 58.03612271 -4.82491694 59.05344925 -6.25 60.0625 C-7.03890625 60.63097656 -7.8278125 61.19945312 -8.640625 61.78515625 C-11 63 -11 63 -13.171875 62.74609375 C-15 62 -15 62 -17 61 C-16.72274659 64.12645567 -16.42575639 67.25072466 -16.125 70.375 C-16.04636719 71.26445313 -15.96773437 72.15390625 -15.88671875 73.0703125 C-15.80292969 73.92109375 -15.71914062 74.771875 -15.6328125 75.6484375 C-15.55949707 76.43395996 -15.48618164 77.21948242 -15.41064453 78.02880859 C-15.14115409 80.22420226 -15.14115409 80.22420226 -13 82 C-16.89114901 83.01911045 -18.60596507 83.16782969 -22.375 81.5625 C-23.24125 81.046875 -24.1075 80.53125 -25 80 C-24.505 78.02 -24.505 78.02 -24 76 C-24.60996826 76.36875244 -25.21993652 76.73750488 -25.84838867 77.11743164 C-28.61927444 78.78101617 -31.40297844 80.42185037 -34.1875 82.0625 C-35.14720703 82.64322266 -36.10691406 83.22394531 -37.09570312 83.82226562 C-38.49272461 84.63920898 -38.49272461 84.63920898 -39.91796875 85.47265625 C-40.77156982 85.98062744 -41.6251709 86.48859863 -42.50463867 87.01196289 C-45.46254067 88.18314275 -46.99779971 87.90512695 -50 87 C-50 83 -50 83 -47.8828125 80.859375 C-46.97273438 80.16328125 -46.06265625 79.4671875 -45.125 78.75 C-44.22007813 78.04359375 -43.31515625 77.3371875 -42.3828125 76.609375 C-40 75 -40 75 -38 75 C-37.71125 74.401875 -37.4225 73.80375 -37.125 73.1875 C-36 71 -36 71 -34 68 C-36.475 68.495 -36.475 68.495 -39 69 C-42.96923077 64.65865385 -42.96923077 64.65865385 -43.125 61.32421875 C-43.08375 60.55722656 -43.0425 59.79023437 -43 59 C-43.62567871 59.36351562 -44.25135742 59.72703125 -44.89599609 60.1015625 C-47.71977077 61.73883754 -50.54731402 63.36949016 -53.375 65 C-54.35984375 65.57234375 -55.3446875 66.1446875 -56.359375 66.734375 C-57.30039062 67.27578125 -58.24140625 67.8171875 -59.2109375 68.375 C-60.08024902 68.87773438 -60.94956055 69.38046875 -61.84521484 69.8984375 C-64 71 -64 71 -66 71 C-66.99 68.03 -66.99 68.03 -68 65 C-65.65802291 63.1113088 -63.311268 61.23505098 -60.91015625 59.421875 C-55.88178612 55.60547101 -51.33681038 51.58781548 -47 47 C-48.98 47.495 -48.98 47.495 -51 48 C-52.83196187 43.47397657 -52.95064958 40.74659999 -52 36 C-52.85549438 36.49983398 -52.85549438 36.49983398 -53.72827148 37.00976562 C-56.29671712 38.50874624 -58.86707636 40.00441398 -61.4375 41.5 C-62.33533203 42.02464844 -63.23316406 42.54929688 -64.15820312 43.08984375 C-65.01220703 43.58613281 -65.86621094 44.08242188 -66.74609375 44.59375 C-67.53685303 45.05458984 -68.3276123 45.51542969 -69.14233398 45.99023438 C-71 47 -71 47 -72 47 C-72.3828125 43.8125 -72.3828125 43.8125 -72 40 C-69.93645675 37.94258002 -68.26161867 36.56396945 -65.875 35 C-64.6768347 34.1542935 -63.48276661 33.3027509 -62.29296875 32.4453125 C-61.7211084 32.03442383 -61.14924805 31.62353516 -60.56005859 31.20019531 C-57.5170726 28.85914381 -55.31162724 26.03813866 -53 23 C-53.98742187 23.58910156 -54.97484375 24.17820312 -55.9921875 24.78515625 C-57.28621126 25.54469193 -58.58049567 26.30378366 -59.875 27.0625 C-60.85146484 27.64741211 -60.85146484 27.64741211 -61.84765625 28.24414062 C-63.53065725 29.22444533 -65.26296199 30.11898432 -67 31 C-67.66 30.67 -68.32 30.34 -69 30 C-62.08058166 17.96829663 -54.45101132 8.74741576 -41 4 C-36.10985744 2.68130987 -31.21259784 2.85281414 -26.1875 2.875 C-25.32318359 2.87113281 -24.45886719 2.86726562 -23.56835938 2.86328125 C-19.49915584 2.86942344 -15.59858236 3.00518537 -11.57421875 3.62890625 C-6.23868138 4.18286915 -4.65832626 0 0 0 Z " fill="#F5AF1A" transform="translate(80,6)"/>
<path d="M0 0 C0 3.63 0 7.26 0 11 C-0.94875 10.67 -1.8975 10.34 -2.875 10 C-7.49435695 8.68018373 -12.23234344 8.43321565 -17 9 C-17.99 9.66 -18.98 10.32 -20 11 C-20.25015873 14.58357241 -20.25015873 14.58357241 -20 18 C-19.50242187 18.24363281 -19.00484375 18.48726562 -18.4921875 18.73828125 C4.05028284 30.15084852 4.05028284 30.15084852 7 39 C7.78345685 45.51168238 6.81896138 50.61820211 3 56 C-2.61598046 62.06218165 -9.05395833 63.61269764 -17.04296875 64.23828125 C-24.78451635 64.42100101 -30.97948406 63.33608486 -38 60 C-39 59 -39 59 -39.09765625 56.71484375 C-39.08605469 55.79832031 -39.07445313 54.88179687 -39.0625 53.9375 C-39.05347656 53.01839844 -39.04445313 52.09929687 -39.03515625 51.15234375 C-39.02355469 50.44207031 -39.01195313 49.73179688 -39 49 C-37.90945312 49.433125 -37.90945312 49.433125 -36.796875 49.875 C-29.70495178 52.49355626 -22.58108589 54.55275253 -15 53 C-12.61709357 51.23775796 -12.61709357 51.23775796 -11 49 C-10.76315895 46.43099674 -10.76315895 46.43099674 -12 44 C-16.46224901 39.98962431 -21.52204389 37.55841014 -26.84375 34.87890625 C-32.2946924 31.63397643 -36.97083694 27.08748918 -39 21 C-39.80421846 15.17516062 -39.19902615 10.61467701 -35.7109375 5.796875 C-26.47046782 -3.90772786 -12.10888136 -1.93615141 0 0 Z " fill="#0573BA" transform="translate(106,24)"/>
<path d="M0 0 C15.18 0 30.36 0 46 0 C44.875 10.125 44.875 10.125 44 14 C43.43796875 13.68289062 42.8759375 13.36578125 42.296875 13.0390625 C39.84803683 11.93125475 37.91612145 11.61024601 35.25 11.375 C34.45078125 11.30023438 33.6515625 11.22546875 32.828125 11.1484375 C32.22484375 11.09945312 31.6215625 11.05046875 31 11 C31.11765679 17.76282281 31.2424872 24.52548589 31.37231445 31.28808594 C31.41563606 33.58883662 31.45731313 35.88961888 31.49731445 38.19042969 C31.55508395 41.49684161 31.61875949 44.803095 31.68359375 48.109375 C31.70030624 49.13867126 31.71701874 50.16796753 31.73423767 51.22845459 C31.7641555 52.66949554 31.7641555 52.66949554 31.79467773 54.13964844 C31.81799416 55.40539703 31.81799416 55.40539703 31.84178162 56.69671631 C31.95376932 59.31227217 31.95376932 59.31227217 33 63 C25.41 63 17.82 63 10 63 C10.66 61.35 11.32 59.7 12 58 C12.32024906 55.60133665 12.32024906 55.60133665 12.31884766 53.11791992 C12.33871735 52.17732224 12.35858704 51.23672455 12.37905884 50.2676239 C12.39061005 49.2653627 12.40216125 48.2631015 12.4140625 47.23046875 C12.43342865 46.19432938 12.4527948 45.15819 12.4727478 44.09065247 C12.53240357 40.78968471 12.57887331 37.48868181 12.625 34.1875 C12.66319263 31.94594855 12.70224511 29.70441158 12.7421875 27.46289062 C12.83809358 21.97538914 12.92318199 16.48780009 13 11 C10.89535207 11.30924214 8.7912947 11.6225056 6.6875 11.9375 C5.51574219 12.11152344 4.34398438 12.28554688 3.13671875 12.46484375 C-0.01641403 12.92093031 -0.01641403 12.92093031 -3 14 C-2.80083984 13.11248047 -2.80083984 13.11248047 -2.59765625 12.20703125 C-2.42105469 11.41683594 -2.24445313 10.62664063 -2.0625 9.8125 C-1.80146484 8.64654297 -1.80146484 8.64654297 -1.53515625 7.45703125 C-0.99506959 4.97736332 -0.49770422 2.48852108 0 0 Z " fill="#0673BA" transform="translate(113,24)"/>
<path d="M0 0 C7.92 0 15.84 0 24 0 C23.34 1.32 22.68 2.64 22 4 C21.69873762 6.59681858 21.69873762 6.59681858 21.74121094 9.43945312 C21.73490662 10.52738159 21.72860229 11.61531006 21.72210693 12.73620605 C21.7261554 13.90607056 21.73020386 15.07593506 21.734375 16.28125 C21.73246155 17.48688599 21.7305481 18.69252197 21.72857666 19.93469238 C21.72721588 22.48331918 21.73090486 25.03195293 21.73925781 27.58056641 C21.7499585 31.48485868 21.73935857 35.38869081 21.7265625 39.29296875 C21.72788411 41.76823018 21.73044654 44.24349133 21.734375 46.71875 C21.73032654 47.8886145 21.72627808 49.058479 21.72210693 50.26379395 C21.72841125 51.35172241 21.73471558 52.43965088 21.74121094 53.56054688 C21.74280212 54.5166687 21.74439331 55.47279053 21.74603271 56.45788574 C21.88367394 59.36082152 21.88367394 59.36082152 24 63 C16.08 63 8.16 63 0 63 C0.66 61.35 1.32 59.7 2 58 C2.29876081 55.34444013 2.29876081 55.34444013 2.25878906 52.53881836 C2.26509338 51.47098618 2.27139771 50.40315399 2.27789307 49.30296326 C2.2738446 48.16013382 2.26979614 47.01730438 2.265625 45.83984375 C2.26753845 44.65781876 2.2694519 43.47579376 2.27142334 42.25794983 C2.2727828 39.76237779 2.26910306 37.26679863 2.26074219 34.77124023 C2.2500301 30.94824381 2.26065078 27.12571629 2.2734375 23.30273438 C2.27211605 20.87760313 2.26955396 18.45247217 2.265625 16.02734375 C2.26967346 14.88249008 2.27372192 13.73763641 2.27789307 12.55809021 C2.27158875 11.49341019 2.26528442 10.42873016 2.25878906 9.33178711 C2.25719788 8.39644638 2.25560669 7.46110565 2.25396729 6.49742126 C2.11169911 3.63268193 2.11169911 3.63268193 0 0 Z " fill="#0572BB" transform="translate(164,24)"/>
<path d="M0 0 C0.33 0 0.66 0 1 0 C1.268125 1.19625 1.53625 2.3925 1.8125 3.625 C2.74444251 7.38605371 4.16808722 10.57511958 6 14 C6.33 14.99 6.66 15.98 7 17 C8.84524627 18.12182813 8.84524627 18.12182813 11 19 C13.68423948 20.40591272 16.34276126 21.85631391 19 23.3125 C19.7115625 23.69083984 20.423125 24.06917969 21.15625 24.45898438 C25.34276061 26.76703267 28.38005229 28.85857224 31 33 C31 35.625 31 35.625 30 38 C26.02117859 41.76130042 22.50811843 41.48079706 17.26171875 41.37109375 C12.16423974 40.79114105 7.67050542 39.05943546 3 37 C2.34 38.98 1.68 40.96 1 43 C-1.24606427 41.22555028 -1.95081002 40.41647515 -2.29296875 37.51953125 C-2.25816406 36.62621094 -2.22335938 35.73289063 -2.1875 34.8125 C-2.16042969 33.91144531 -2.13335937 33.01039062 -2.10546875 32.08203125 C-2.07066406 31.39496094 -2.03585938 30.70789063 -2 30 C-1.175 30.268125 -0.35 30.53625 0.5 30.8125 C5.44196947 31.07724836 8.11848216 28.84710319 12 26 C11.319375 25.505 10.63875 25.01 9.9375 24.5 C5.52652992 20.74598291 0.86009278 16.58027833 -1 11 C-1.09267588 9.29367352 -1.12998202 7.58383413 -1.125 5.875 C-1.12757812 4.98554687 -1.13015625 4.09609375 -1.1328125 3.1796875 C-1 1 -1 1 0 0 Z " fill="#F5EC0C" transform="translate(65,37)"/>
<path d="M0 0 C3.31667049 1.67732382 4.60472577 4.81084408 6.296875 7.97265625 C6.66039063 8.61912109 7.02390625 9.26558594 7.3984375 9.93164062 C10.046875 14.72571076 10.046875 14.72571076 10.046875 17.03515625 C7.5625 18.83203125 7.5625 18.83203125 4.296875 20.78515625 C3.22953125 21.44 2.1621875 22.09484375 1.0625 22.76953125 C-1.953125 24.03515625 -1.953125 24.03515625 -4.34375 23.23828125 C-4.87484375 22.84125 -5.4059375 22.44421875 -5.953125 22.03515625 C-5.953125 19.03515625 -5.953125 19.03515625 -4.953125 17.03515625 C-6.603125 17.36515625 -8.253125 17.69515625 -9.953125 18.03515625 C-13.953125 13.67151989 -13.953125 13.67151989 -13.953125 11.03515625 C-11.30515588 5.739218 -6.40790078 0.11534221 0 0 Z " fill="#0973B9" transform="translate(50.953125,56.96484375)"/>
<path d="M0 0 C3.37368681 3.07513046 5.50901962 6.28518856 7.75 10.25 C8.67039062 11.86648437 8.67039062 11.86648437 9.609375 13.515625 C10.06828125 14.33546875 10.5271875 15.1553125 11 16 C8.21190445 18.97569363 5.43585821 21.16048288 1.9375 23.25 C1.08027344 23.77078125 0.22304688 24.2915625 -0.66015625 24.828125 C-3 26 -3 26 -6 26 C-7.125 20.25 -7.125 20.25 -6 18 C-6.99 18.33 -7.98 18.66 -9 19 C-10.64052787 14.85042951 -11.36463952 12.28602801 -10 8 C-8.22265625 6.015625 -8.22265625 6.015625 -6.0625 4.25 C-5.35222656 3.65703125 -4.64195313 3.0640625 -3.91015625 2.453125 C-2 1 -2 1 0 0 Z " fill="#0672BA" transform="translate(38,35)"/>
<path d="M0 0 C2.65747854 1.6394395 4.46903928 2.94649954 6.35546875 5.453125 C7.14296904 10.0018207 6.78455088 14.06807069 5.35546875 18.453125 C2.34967148 21.29617183 -0.81784153 22.9321721 -4.64453125 24.453125 C-6.31847126 21.83269657 -7.98241475 19.20606595 -9.64453125 16.578125 C-10.12148438 15.83175781 -10.5984375 15.08539063 -11.08984375 14.31640625 C-11.54101562 13.60097656 -11.9921875 12.88554688 -12.45703125 12.1484375 C-12.87597656 11.48859863 -13.29492188 10.82875977 -13.7265625 10.14892578 C-14.64453125 8.453125 -14.64453125 8.453125 -14.64453125 6.453125 C-12.1953125 4.65625 -12.1953125 4.65625 -8.95703125 2.703125 C-7.90128906 2.04828125 -6.84554687 1.3934375 -5.7578125 0.71875 C-2.64453125 -0.546875 -2.64453125 -0.546875 0 0 Z " fill="#0772BA" transform="translate(57.64453125,25.546875)"/>
<path d="M0 0 C0.7734375 1.2684375 0.7734375 1.2684375 1.5625 2.5625 C4.38646098 7.09598525 8.73027119 9.91630697 13 13 C10.17482163 15.89101939 7.68464422 18.24979399 4 20 C0.9097339 20 -0.12626623 18.89267371 -2.5 16.875 C-8.85756677 9.56379822 -8.85756677 9.56379822 -9.125 4.75 C-7.13881434 1.66037786 -3.65159993 0 0 0 Z " fill="#0973BA" transform="translate(65,49)"/>
<path d="M0 0 C3.96 1.98 7.92 3.96 12 6 C11 12 11 12 10 13 C2.94513365 13.06998875 -2.79806438 11.22081198 -9 8 C-9 7.34 -9 6.68 -9 6 C-6.12557036 3.79855191 -3.05381433 1.95104804 0 0 Z " fill="#F1AD1F" transform="translate(78,62)"/>
<path d="M0 0 C3.73639216 1.24546405 4.18756513 2.63404953 6 6 C4.59447701 7.03612271 3.17508306 8.05344925 1.75 9.0625 C0.96109375 9.63097656 0.1721875 10.19945313 -0.640625 10.78515625 C-3 12 -3 12 -5.171875 11.93359375 C-7.54372156 10.72233023 -8.05626313 9.43798691 -9 7 C-7.57277341 5.8001722 -6.13284224 4.6154424 -4.6875 3.4375 C-3.88699219 2.77621094 -3.08648437 2.11492187 -2.26171875 1.43359375 C-1.51535156 0.96050781 -0.76898438 0.48742187 0 0 Z " fill="#0A73BA" transform="translate(32,72)"/>
<path d="M0 0 C6.19887485 -0.37952295 10.4477112 0.1647887 16 3 C16 3.66 16 4.32 16 5 C14.56988027 5.86646667 13.13059381 6.71781829 11.6875 7.5625 C10.88699219 8.03816406 10.08648437 8.51382812 9.26171875 9.00390625 C7 10 7 10 4 9 C2.00603743 6.33916031 0 3.38757675 0 0 Z " fill="#0A72BA" transform="translate(35,18)"/>
<path d="M0 0 C2.5654594 2.5654594 2.54046087 4.47686668 3 8 C1.37829621 9.00533667 -0.24747237 10.00411907 -1.875 11 C-3.23238281 11.8353125 -3.23238281 11.8353125 -4.6171875 12.6875 C-7 14 -7 14 -9 14 C-9.5625 10.9375 -9.5625 10.9375 -9 7 C-6.27517826 4.24862054 -3.23618944 2.11251255 0 0 Z " fill="#1075B7" transform="translate(22,49)"/>
<path d="M0 0 C2.28877775 1.0462984 3.47516871 2.19444723 5.1875 4 C3.94695552 5.01170618 2.6946298 6.00897797 1.4375 7 C0.74140625 7.556875 0.0453125 8.11375 -0.671875 8.6875 C-2.8125 10 -2.8125 10 -6.8125 10 C-9.0625 7.5 -9.0625 7.5 -10.8125 5 C-3.84018166 0 -3.84018166 0 0 0 Z " fill="#0C73B9" transform="translate(71.8125,17)"/>
<path d="M0 0 C2.6244603 2.3745117 4.50692877 4.77810946 6 8 C5.1342319 10.6175562 4.37810684 11.75400278 2.0546875 13.265625 C1.33539062 13.59046875 0.61609375 13.9153125 -0.125 14.25 C-0.84945313 14.58515625 -1.57390625 14.9203125 -2.3203125 15.265625 C-3.15175781 15.62914062 -3.15175781 15.62914062 -4 16 C-4.25 10.375 -4.25 10.375 -2 7 C-2.33 6.34 -2.66 5.68 -3 5 C-1.5625 2.375 -1.5625 2.375 0 0 Z " fill="#0D72B9" transform="translate(30,21)"/>
<path d="M0 0 C2.5625 1.5625 2.5625 1.5625 4.5625 3.5625 C-0.4372944 7.19871411 -4.00730776 9.46272691 -10.4375 8.5625 C-11.0975 7.9025 -11.7575 7.2425 -12.4375 6.5625 C-4.59314202 -0.58458171 -4.59314202 -0.58458171 0 0 Z " fill="#F8B018" transform="translate(53.4375,89.4375)"/>
<path d="M0 0 C0.45572917 2.01822917 0.91145833 4.03645833 1.3671875 6.0546875 C1.90474428 8.20719964 1.90474428 8.20719964 4 10 C0.10885099 11.01911045 -1.60596507 11.16782969 -5.375 9.5625 C-6.24125 9.046875 -7.1075 8.53125 -8 8 C-6.48291727 4.46014029 -4.24676932 0 0 0 Z " fill="#0C72BA" transform="translate(63,78)"/>
<path d="M0 0 C2.24973447 -0.054138 4.49984383 -0.09285491 6.75 -0.125 C8.00296875 -0.14820313 9.2559375 -0.17140625 10.546875 -0.1953125 C13.72820492 -0.01537302 15.36521896 0.31001418 18 2 C12.56880734 6.0733945 12.56880734 6.0733945 10.0625 5.75 C7.86315431 4.95023793 5.82901228 4.01165634 3.75 2.9375 C3.04359375 2.57527344 2.3371875 2.21304687 1.609375 1.83984375 C1.07828125 1.56269531 0.5471875 1.28554687 0 1 C0 0.67 0 0.34 0 0 Z " fill="#1775B5" transform="translate(46,13)"/>
<path d="M0 0 C1.11375 0.33 2.2275 0.66 3.375 1 C0.81926039 4.0171926 -2.00880793 5.2432533 -5.625 6.75 C-6.676875 7.19859375 -7.72875 7.6471875 -8.8125 8.109375 C-11.625 9 -11.625 9 -14.625 8 C-5.2835581 -0.74803063 -5.2835581 -0.74803063 0 0 Z " fill="#FCB115" transform="translate(75.625,89)"/>
<path d="M0 0 C2.25245881 2.68841859 3.88213958 4.64641875 5 8 C5.66 8.33 6.32 8.66 7 9 C5.68 9.33 4.36 9.66 3 10 C3 10.66 3 11.32 3 12 C-0.2830098 10.3584951 -1.27037919 7.17097149 -3 4 C-2.01 2.68 -1.02 1.36 0 0 Z " fill="#EFB020" transform="translate(36,67)"/>
<path d="M0 0 C0.99 0.33 1.98 0.66 3 1 C3 1.99 3 2.98 3 4 C0.8828125 5.60546875 0.8828125 5.60546875 -1.875 7.1875 C-2.77992187 7.71730469 -3.68484375 8.24710938 -4.6171875 8.79296875 C-7 10 -7 10 -9 10 C-8.61855607 7.34723083 -8.18209887 6.18169057 -6.2578125 4.26171875 C-5.20207031 3.48248047 -5.20207031 3.48248047 -4.125 2.6875 C-3.42632812 2.15511719 -2.72765625 1.62273438 -2.0078125 1.07421875 C-1.34523438 0.71972656 -0.68265625 0.36523438 0 0 Z " fill="#1474B8" transform="translate(25,61)"/>
<path d="M0 0 C4.95 1.98 4.95 1.98 10 4 C6 7 6 7 2.9375 6.875 C0.01283955 6.00382455 -1.15234037 5.36089842 -3 3 C-2.01 2.01 -1.02 1.02 0 0 Z " fill="#F7B117" transform="translate(54,85)"/>
<path d="M0 0 C2.29633824 3.44450737 2.54016485 5.93812283 3 10 C1.68 10.33 0.36 10.66 -1 11 C-3.07036536 6.61569689 -3.07036536 6.61569689 -2.75 3.8125 C-2 2 -2 2 0 0 Z " fill="#F0AD1E" transform="translate(26,45)"/>
<path d="M0 0 C2.875 1.3125 2.875 1.3125 4.875 3.3125 C3.875 4.3125 3.875 4.3125 1.37109375 4.41015625 C-0.14291016 4.39275391 -0.14291016 4.39275391 -1.6875 4.375 C-2.69941406 4.36597656 -3.71132813 4.35695313 -4.75390625 4.34765625 C-5.53636719 4.33605469 -6.31882813 4.32445313 -7.125 4.3125 C-7.125 2.3125 -7.125 2.3125 -5.5 0.5625 C-3.125 -0.6875 -3.125 -0.6875 0 0 Z " fill="#1E77B3" transform="translate(53.125,89.6875)"/>
<path d="M0 0 C2.475 0.99 2.475 0.99 5 2 C4.67 3.98 4.34 5.96 4 8 C2.68 8.33 1.36 8.66 0 9 C0 6.03 0 3.06 0 0 Z " fill="#0E72BA" transform="translate(85,66)"/>
<path d="M0 0 C1.98 1.65 3.96 3.3 6 5 C4.68 5.99 3.36 6.98 2 8 C0.68 7.34 -0.64 6.68 -2 6 C-2 2 -2 2 0 0 Z " fill="#F1B21F" transform="translate(22,79)"/>
<path d="M0 0 C0.99 0.33 1.98 0.66 3 1 C1.52440331 5.42679007 -0.90057368 5.91432696 -5 8 C-5.66 8 -6.32 8 -7 8 C-5.51218185 4.21282653 -3.38011591 2.22592999 0 0 Z " fill="#2076B3" transform="translate(40,81)"/>
<path d="M0 0 C0 2.31 0 4.62 0 7 C-1.32 7.33 -2.64 7.66 -4 8 C-4.1875 5.125 -4.1875 5.125 -4 2 C-1 0 -1 0 0 0 Z " fill="#FAB115" transform="translate(13,57)"/>
<path d="M0 0 C0 1.98 0 3.96 0 6 C-2.31 5.34 -4.62 4.68 -7 4 C-2.25 0 -2.25 0 0 0 Z " fill="#1775B6" transform="translate(80,68)"/>
<path d="M0 0 C0.33 0.99 0.66 1.98 1 3 C-1.31 4.32 -3.62 5.64 -6 7 C-4.60667426 3.63279613 -3.0210714 2.0140476 0 0 Z " fill="#1071BA" transform="translate(20,37)"/>
</svg>
